<?xml version="1.0" encoding="UTF-8"?>
<svg width="375px" height="339px" viewBox="0 0 375 339" version="1.1" xmlns="http://www.w3.org/2000/svg" xmlns:xlink="http://www.w3.org/1999/xlink">
    <!-- Generator: Sketch 42 (36781) - http://www.bohemiancoding.com/sketch -->
    <title>Combined Shape + Combined Shape + Combined Shape + Combined Shape + Combined Shape + Combined Shape + Combined Shape Mask</title>
    <desc>Created with Sketch.</desc>
    <defs>
        <linearGradient x1="50%" y1="99.5276626%" x2="50%" y2="3.20941801%" id="linearGradient-1">
            <stop stop-color="#EBECEC" offset="0%"></stop>
            <stop stop-color="#A9AEB1" offset="100%"></stop>
        </linearGradient>
        <rect id="path-2" x="0" y="0" width="375" height="339"></rect>
    </defs>
    <g id="Page-1" stroke="none" stroke-width="1" fill="none" fill-rule="evenodd">
        <g id="Cloudy">
            <g id="Combined-Shape-+-Combined-Shape-+-Combined-Shape-+-Combined-Shape-+-Combined-Shape-+-Combined-Shape-+-Combined-Shape-Mask">
                <mask id="mask-3" fill="white">
                    <use xlink:href="#path-2"></use>
                </mask>
                <use id="Mask" fill="url(#linearGradient-1)" xlink:href="#path-2"></use>
                <path d="M164.98486,318.650025 C164.994935,319.098798 165,319.548808 165,320 C165,352.5848 138.5848,379 106,379 C79.4519097,379 56.9991927,361.465623 49.5911224,337.346142 C45.3974952,339.057118 40.8088585,340 36,340 C16.117749,340 0,323.882251 0,304 C0,284.117749 16.117749,268 36,268 C46.6078748,268 56.1441485,272.58807 62.7326619,279.888052 C73.5080212,268.270502 88.9049522,261 106,261 C126.169927,261 143.975919,271.12121 154.616238,286.561892 C158.472579,280.796405 165.04294,277 172.5,277 C184.374122,277 194,286.625878 194,298.5 C194,310.374122 184.374122,320 172.5,320 C169.856375,320 167.324189,319.52287 164.98486,318.650025 Z" id="Combined-Shape" fill="#FFFFFF" mask="url(#mask-3)" transform="translate(97.000000, 320.000000) scale(1, -1) translate(-97.000000, -320.000000) "></path>
                <path d="M462.98486,306.650025 C462.994935,307.098798 463,307.548808 463,308 C463,340.5848 436.5848,367 404,367 C377.45191,367 354.999193,349.465623 347.591122,325.346142 C343.397495,327.057118 338.808859,328 334,328 C314.117749,328 298,311.882251 298,292 C298,272.117749 314.117749,256 334,256 C344.607875,256 354.144148,260.58807 360.732662,267.888052 C371.508021,256.270502 386.904952,249 404,249 C424.169927,249 441.975919,259.12121 452.616238,274.561892 C456.472579,268.796405 463.04294,265 470.5,265 C482.374122,265 492,274.625878 492,286.5 C492,298.374122 482.374122,308 470.5,308 C467.856375,308 465.324189,307.52287 462.98486,306.650025 Z" id="Combined-Shape" fill="#FFFFFF" mask="url(#mask-3)" transform="translate(395.000000, 308.000000) scale(-1, -1) translate(-395.000000, -308.000000) "></path>
                <path d="M256.097557,316.720053 C250.646696,303.941453 238.10304,295 223.5,295 C203.893891,295 188,311.117749 188,331 C188,350.882251 203.893891,367 223.5,367 C237.806535,367 250.136467,358.417961 255.756799,346.05354 C258.039897,347.263923 260.641721,347.949153 263.402891,347.949153 C272.461958,347.949153 279.805783,340.573234 279.805783,331.474576 C279.805783,322.375919 272.461958,315 263.402891,315 C260.778158,315 258.297413,315.619184 256.097557,316.720053 Z" id="Combined-Shape" fill="#FFFFFF" mask="url(#mask-3)" transform="translate(233.902891, 331.000000) scale(1, -1) translate(-233.902891, -331.000000) "></path>
                <path d="M60.4900015,227.730115 C63.8214606,235.540144 71.4878971,241.004985 80.4129878,241.004985 C92.3958561,241.004985 102.10989,231.154133 102.10989,219.002492 C102.10989,206.850851 92.3958561,197 80.4129878,197 C71.6691148,197 64.1333029,202.245174 60.6982662,209.802065 C59.3028816,209.062302 57.7126982,208.643504 56.0251249,208.643504 C50.4884013,208.643504 46,213.15152 46,218.712441 C46,224.273361 50.4884013,228.781378 56.0251249,228.781378 C57.6293105,228.781378 59.145493,228.402945 60.4900015,227.730115 Z M113.781906,211.582418 C118.49243,211.582418 122.311065,215.481476 122.311065,220.291209 C122.311065,225.100941 118.49243,229 113.781906,229 C109.071382,229 105.252747,225.100941 105.252747,220.291209 C105.252747,215.481476 109.071382,211.582418 113.781906,211.582418 Z" id="Combined-Shape" fill="#FFFFFF" mask="url(#mask-3)"></path>
                <path d="M269.041352,328.887556 C271.744644,325.308244 276.00234,323 280.791667,323 C286.752723,323 291.890194,326.57585 294.232,331.727692 C295.18329,331.223365 296.267384,330.937853 297.417871,330.937853 C301.192483,330.937853 304.25241,334.011153 304.25241,337.80226 C304.25241,341.593367 301.192483,344.666667 297.417871,344.666667 C296.324232,344.666667 295.290589,344.408673 294.373982,343.949978 C292.10279,349.274395 286.876266,353 280.791667,353 C276.299427,353 272.27491,350.96924 269.562117,347.76361 C268.455548,348.185567 267.254762,348.416667 266,348.416667 C260.477153,348.416667 256,343.939514 256,338.416667 C256,332.893819 260.477153,328.416667 266,328.416667 C267.060433,328.416667 268.082314,328.581727 269.041352,328.887556 Z" id="Combined-Shape" fill="#FFFFFF" mask="url(#mask-3)"></path>
                <path d="M-3.13383633,64.4200901 C1.19143093,58.6931911 8.00374352,55 15.6666667,55 C25.2043567,55 33.4243112,60.7213596 37.1711995,68.9643067 C38.6932648,68.1573844 40.4278137,67.700565 42.2685943,67.700565 C48.3079722,67.700565 53.2038553,72.6178443 53.2038553,78.6836158 C53.2038553,84.7493873 48.3079722,89.6666667 42.2685943,89.6666667 C40.5187718,89.6666667 38.8649419,89.2538773 37.3983715,88.5199644 C33.7644642,97.0390313 25.4020264,103 15.6666667,103 C8.47908367,103 2.03985552,99.750784 -2.3006132,94.6217763 C-4.07112275,95.2969078 -5.99238047,95.6666667 -8,95.6666667 C-16.836556,95.6666667 -24,88.5032227 -24,79.6666667 C-24,70.8301107 -16.836556,63.6666667 -8,63.6666667 C-6.30330747,63.6666667 -4.66829791,63.9307628 -3.13383633,64.4200901 Z" id="Combined-Shape" fill="#FFFFFF" mask="url(#mask-3)" transform="translate(14.601928, 79.000000) scale(-1, 1) translate(-14.601928, -79.000000) "></path>
                <path d="M321.041352,144.887556 C323.744644,141.308244 328.00234,139 332.791667,139 C338.752723,139 343.890194,142.57585 346.232,147.727692 C347.18329,147.223365 348.267384,146.937853 349.417871,146.937853 C353.192483,146.937853 356.25241,150.011153 356.25241,153.80226 C356.25241,157.593367 353.192483,160.666667 349.417871,160.666667 C348.324232,160.666667 347.290589,160.408673 346.373982,159.949978 C344.10279,165.274395 338.876266,169 332.791667,169 C328.299427,169 324.27491,166.96924 321.562117,163.76361 C320.455548,164.185567 319.254762,164.416667 318,164.416667 C312.477153,164.416667 308,159.939514 308,154.416667 C308,148.893819 312.477153,144.416667 318,144.416667 C319.060433,144.416667 320.082314,144.581727 321.041352,144.887556 Z" id="Combined-Shape" fill="#FFFFFF" mask="url(#mask-3)"></path>
            </g>
        </g>
    </g>
</svg>