<?xml version="1.0" encoding="UTF-8"?>
<svg width="375px" height="379px" viewBox="0 0 375 379" version="1.1" xmlns="http://www.w3.org/2000/svg" xmlns:xlink="http://www.w3.org/1999/xlink">
    <!-- Generator: Sketch 42 (36781) - http://www.bohemiancoding.com/sketch -->
    <title>Group 3</title>
    <desc>Created with Sketch.</desc>
    <defs>
        <linearGradient x1="50%" y1="1.63869535%" x2="50%" y2="98.3169675%" id="linearGradient-1">
            <stop stop-color="#3EE0F7" offset="0%"></stop>
            <stop stop-color="#5089F4" offset="100%"></stop>
        </linearGradient>
    </defs>
    <g id="Page-1" stroke="none" stroke-width="1" fill="none" fill-rule="evenodd">
        <g id="Clear">
            <g id="Group-3" transform="translate(-32.000000, 0.000000)">
                <rect id="Rectangle" fill="url(#linearGradient-1)" x="32" y="0" width="375" height="339"></rect>
                <path d="M214.723924,326.427084 C214.732701,326.818025 214.737113,327.210044 214.737113,327.603093 C214.737113,355.988821 191.725934,379 163.340206,379 C140.213262,379 120.653936,363.725207 114.200514,342.713907 C110.547302,344.204397 106.549985,345.025773 102.360825,345.025773 C85.0407195,345.025773 71,330.985054 71,313.664948 C71,296.344843 85.0407195,282.304124 102.360825,282.304124 C111.601705,282.304124 119.909078,286.300948 125.648556,292.66021 C135.035338,282.539767 148.448128,276.206186 163.340206,276.206186 C180.910916,276.206186 196.422321,285.023116 205.691465,298.47402 C209.050855,293.451508 214.77452,290.14433 221.270619,290.14433 C231.61457,290.14433 240,298.52976 240,308.873711 C240,319.217663 231.61457,327.603093 221.270619,327.603093 C218.967667,327.603093 216.761794,327.187448 214.723924,326.427084 Z" id="Combined-Shape" fill="#FFFFFF" transform="translate(155.500000, 327.603093) scale(1, -1) translate(-155.500000, -327.603093) "></path>
                <path d="M68.0975572,66.7200534 C62.6466963,53.9414531 50.1030396,45 35.5,45 C15.8938914,45 0,61.117749 0,81 C0,100.882251 15.8938914,117 35.5,117 C49.806535,117 62.1364668,108.417961 67.7567992,96.0535399 C70.0398972,97.2639235 72.6417206,97.9491525 75.4028914,97.9491525 C84.4619582,97.9491525 91.8057829,90.5732335 91.8057829,81.4745763 C91.8057829,72.375919 84.4619582,65 75.4028914,65 C72.7781577,65 70.2974129,65.619184 68.0975572,66.7200534 Z" id="Combined-Shape" fill="#FFFFFF" transform="translate(45.902891, 81.000000) scale(1, -1) translate(-45.902891, -81.000000) "></path>
                <ellipse id="Oval" fill="#FFFFFF" transform="translate(407.500000, 256.000000) scale(1, -1) translate(-407.500000, -256.000000) " cx="407.5" cy="256" rx="24.5" ry="22"></ellipse>
                <circle id="Oval-10" fill="#FFFFFF" cx="252" cy="303" r="12"></circle>
                <rect id="bounds" x="192" y="153" width="40" height="20"></rect>
            </g>
        </g>
    </g>
</svg>